# xmcd
#
# Track frame offsets: 
#        150
#        14626
#        28731
#        40280
#        53873
#        67480
#        80606
#        94042
#        107094
#        120306
#        132056
#        144762
#        157446
#        171460
#        185542
#        198166
#        211300
#        218296
#        233184
#        248312
#        262578
#        276236
#
# Disc length: 3880 seconds
#
# Revision: 0
# Processed by: cddbd v1.5.2PL0 Copyright (c) Steve Scherf et al.
# Submitted via: ExactAudioCopy v0.95b4
#
DISCID=370f2616
DTITLE=Louis Armstrong - St Louis Blues
DYEAR=1999
DGENRE=Blues
TTITLE0=Shanghai Shuffle
TTITLE1=Texas Moaner Blues
TTITLE2=Everybody Loves My Baby
TTITLE3=Mandy, Make Up Your Mind
TTITLE4=Cake-Walking Babies From Home
TTITLE5=Papa De Da Da
TTITLE6=Money Blues
TTITLE7=Sugar Foot Stomp
TTITLE8=You Can't Shush Katie
TTITLE9=I Ain't Gonna Play No Second Fiddle
TTITLE10=Drop That Sack
TTITLE11=He Likes It Slow
TTITLE12=Wild Man Blues
TTITLE13=Melancholy
TTITLE14=Static Strut
TTITLE15=Stomp Off, Let's Go
TTITLE16=Knocking A Jug
TTITLE17=Mohogony Hall Stomp
TTITLE18=Ain't Misbehavin'
TTITLE19=Some Of These Days
TTITLE20=St Louis Blues
TTITLE21=Rockin' Chair
EXTD=
EXTT0=
EXTT1=
EXTT2=
EXTT3=
EXTT4=
EXTT5=
EXTT6=
EXTT7=
EXTT8=
EXTT9=
EXTT10=
EXTT11=
EXTT12=
EXTT13=
EXTT14=
EXTT15=
EXTT16=
EXTT17=
EXTT18=
EXTT19=
EXTT20=
EXTT21=
PLAYORDER=
